<svg width="150" height="150" viewBox="0 0 150 150" fill="none" xmlns="http://www.w3.org/2000/svg">
<path fill-rule="evenodd" clip-rule="evenodd" d="M75 86.25C82.9565 86.25 90.5871 83.0893 96.2132 77.4632C101.839 71.8371 105 64.2065 105 56.25C105 48.2935 101.839 40.6629 96.2132 35.0368C90.5871 29.4107 82.9565 26.25 75 26.25C67.0435 26.25 59.4129 29.4107 53.7868 35.0368C48.1607 40.6629 45 48.2935 45 56.25C45 64.2065 48.1607 71.8371 53.7868 77.4632C59.4129 83.0893 67.0435 86.25 75 86.25ZM75 78.75C77.9547 78.75 80.8806 78.168 83.6104 77.0373C86.3402 75.9066 88.8206 74.2492 90.9099 72.1599C92.9992 70.0706 94.6566 67.5902 95.7873 64.8604C96.918 62.1306 97.5 59.2047 97.5 56.25C97.5 53.2953 96.918 50.3694 95.7873 47.6396C94.6566 44.9098 92.9992 42.4294 90.9099 40.3401C88.8206 38.2508 86.3402 36.5934 83.6104 35.4627C80.8806 34.332 77.9547 33.75 75 33.75C69.0326 33.75 63.3097 36.1205 59.0901 40.3401C54.8705 44.5597 52.5 50.2826 52.5 56.25C52.5 62.2174 54.8705 67.9403 59.0901 72.1599C63.3097 76.3795 69.0326 78.75 75 78.75Z" fill="#FFFFEC"/>
<path fill-rule="evenodd" clip-rule="evenodd" d="M150 75C150 116.422 116.422 150 75 150C33.5775 150 0 116.422 0 75C0 33.5775 33.5775 0 75 0C116.422 0 150 33.5775 150 75ZM111.113 132.037C100.316 138.891 87.7879 142.521 75 142.5C61.9068 142.52 49.093 138.714 38.1337 131.55C37.2337 130.425 36.3188 129.263 35.3963 128.063C34.3244 126.657 33.7458 124.937 33.75 123.169C33.75 119.13 36.6525 115.744 40.5338 115.178C66.2025 111.428 83.8763 111.75 109.579 115.309C111.44 115.579 113.141 116.513 114.367 117.939C115.593 119.365 116.262 121.187 116.25 123.068C116.25 124.868 115.631 126.615 114.514 127.98C113.362 129.382 112.226 130.736 111.113 132.037ZM123.694 121.747C123.094 114.727 117.765 108.87 110.606 107.88C84.2962 104.239 65.9063 103.89 39.45 107.756C32.25 108.806 26.9438 114.716 26.3138 121.755C14.2212 109.196 7.47617 92.434 7.5 75C7.5 37.7213 37.7213 7.5 75 7.5C112.279 7.5 142.5 37.7213 142.5 75C142.524 92.4304 135.782 109.19 123.694 121.747Z" fill="#FFFFEC"/>
</svg>

