<svg width="40" height="40" viewBox="0 0 40 40" fill="none" xmlns="http://www.w3.org/2000/svg">
<path d="M26.7477 25.3601H26.4786C26.7361 25.0933 26.97 24.8041 27.1771 24.4954C27.6532 23.786 27.9779 22.9887 28.1312 22.1518L28.2393 21.5617H27.6394H21.2518V17.7491L32.353 17.7477C32.452 18.4231 32.5011 19.1048 32.5 19.7874V19.7882C32.5 23.4667 31.1613 26.5413 28.8651 28.6123L28.6948 28.7659C26.7011 30.4913 23.9874 31.5007 20.7518 31.5007C17.4993 31.5007 14.3819 30.2341 12.0849 27.9825C9.78834 25.7313 8.5 22.6801 8.5 19.5007C8.5 16.3214 9.78834 13.2702 12.0849 11.019C14.3819 8.7674 17.4993 7.50075 20.7518 7.50075V7.50078L20.7573 7.50072C23.6186 7.46948 26.3859 8.45967 28.5481 10.2739L25.6227 13.1416C24.26 12.0251 22.5311 11.4214 20.748 11.4476C17.198 11.4493 14.191 13.7956 13.1185 16.9485C12.5495 18.6061 12.5495 20.401 13.1188 22.0585L13.2347 22.3961H13.2477C14.4186 25.3731 17.3327 27.5539 20.7566 27.5539C22.5582 27.5539 24.1341 27.1014 25.3727 26.2762L26.7477 25.3601ZM33 19.7882C33 23.31 31.8108 26.3279 29.7186 28.4836H29.2031H29.1999V28.98L33 19.7882Z" fill="#FFFFEC" stroke="#FFFFEC"/>
<rect x="1.5" y="1.5" width="37" height="37" rx="8.5" stroke="#FFFFEC" stroke-width="3"/>
</svg>
