<svg xmlns="http://www.w3.org/2000/svg" viewBox="0 0 194.75 198.9"><defs><style>.cls-1{fill:#f5e833;stroke:#f5e833;stroke-miterlimit:10;}.cls-2{fill:none;stroke:#f38f1a;stroke-linecap:round;stroke-linejoin:round;stroke-width:5px;}.cls-3{fill:#fffced;}.cls-4{fill:#1d1d1b;}.cls-5{fill:#f38f1a;}</style></defs><g id="Camada_2" data-name="Camada 2"><g id="Camada_4" data-name="Camada 4"><ellipse class="cls-1" cx="97.57" cy="60.71" rx="54.89" ry="55.79"/><rect class="cls-1" x="72.28" y="104.75" width="50.52" height="22.16"/><rect class="cls-2" x="72.99" y="49.87" width="16.55" height="16.55" rx="8.28"/><rect class="cls-2" x="105.5" y="49.87" width="16.55" height="16.55" rx="8.28"/><line class="cls-2" x1="89.46" y1="59.29" x2="89.46" y2="121.31"/><line class="cls-2" x1="105.5" y1="59.29" x2="105.5" y2="121.31"/><line class="cls-2" x1="81.27" y1="66.42" x2="113.78" y2="66.42"/><path class="cls-3" d="M93.36,172.29c-4.1-3.29-9.17-2.53-21.54.33-20.56,4.74-26.4,7.46-28.35,10.15a21,21,0,0,1-6,.88c-11.12,0-20.16-8.67-20.17-19.34a2.38,2.38,0,0,0,0-.46s0,0,0,0c-1.6-8.73-3.63-17.54-6.05-26.17-1-3.53-1.95-6.75-2.81-9.58C6.11,120.56,4,113.48,5.49,112.2c.67-.57,2.95-.57,7.16,1.23a57.71,57.71,0,0,1,4.24,5l.18.23a60.43,60.43,0,0,1,4.39,6.71,61,61,0,0,1,6.32,16.37,2.49,2.49,0,0,0,2.88,3.9,20.2,20.2,0,0,1,28,18.64,2.5,2.5,0,0,0,5,0,25.22,25.22,0,0,0-25.19-25.19,24.82,24.82,0,0,0-6,.72,66.15,66.15,0,0,0-6.64-16.9,64,64,0,0,0-4.4-6.79c-.16-5.11-.58-34.21,9.74-45.38a11.81,11.81,0,0,1,8.66-4.12,2.5,2.5,0,0,0-.15-5,16.82,16.82,0,0,0-12.18,5.73C18.13,77.5,16.54,99,16.38,110.11c-.15-.17-.31-.33-.47-.5l-.34-.36-.45-.2c-6-2.67-10.23-2.89-12.86-.66-4,3.39-2.12,9.68,1.33,21.1.84,2.81,1.81,6,2.78,9.49,2.35,8.44,4.35,17.05,5.92,25.59.14,13.31,11.37,24.08,25.16,24.08a26.44,26.44,0,0,0,4.95-.47,14,14,0,0,0,5,8.37c1.77,1.46,3.87,2.35,7.87,2.35,4.24,0,10.62-1,21-3.36,16.66-3.78,19.94-5.71,21.36-9.58C99.27,181.52,97.39,175.52,93.36,172.29Zm-.42,12c-.6,1.65-3.7,3.23-17.77,6.43-10.68,2.42-16.52,3.23-19.9,3.23-2.81,0-3.91-.56-4.69-1.2-1.93-1.6-3.7-4.46-3.19-6.63.25-1.06,3.91-3.59,25.55-8.58,7-1.62,11-2.37,13.57-2.37a5.52,5.52,0,0,1,3.73,1.07C92.61,178.09,93.85,181.78,92.94,184.24Z"/><path class="cls-3" d="M64.15,125l-25.62,3.41a1.84,1.84,0,0,1-.33,0,2.5,2.5,0,0,1-.33-5l25.62-3.42a2.5,2.5,0,0,1,.66,5Z"/><path class="cls-4" d="M150.7,186.52a2.44,2.44,0,0,1-.39-1,1.15,1.15,0,0,1,.32.51A3.5,3.5,0,0,1,150.7,186.52Z"/><path class="cls-3" d="M192.5,108.39c-2.63-2.23-6.84-2-12.87.66l-.45.2-.34.36c-.16.17-.32.33-.46.5-.16-11.16-1.76-32.61-11.11-42.74a16.82,16.82,0,0,0-12.18-5.73,2.55,2.55,0,0,0-2.58,2.43,2.5,2.5,0,0,0,2.43,2.57,11.77,11.77,0,0,1,8.65,4.12c10.32,11.17,9.9,40.3,9.75,45.39a63.88,63.88,0,0,0-4.4,6.78,66.15,66.15,0,0,0-6.64,16.9,24.82,24.82,0,0,0-6-.72,25.22,25.22,0,0,0-25.19,25.19,2.5,2.5,0,0,0,5,0,20.2,20.2,0,0,1,28-18.64,2.49,2.49,0,0,0,2.88-3.9,61,61,0,0,1,6.32-16.37,60.34,60.34,0,0,1,4.38-6.71s0,0,0,0l.21-.26a58.5,58.5,0,0,1,4.21-5c4.21-1.8,6.48-1.8,7.16-1.23,1.51,1.28-.63,8.36-2.88,15.84-.86,2.84-1.83,6.06-2.82,9.59-2.41,8.63-4.44,17.44-6,26.17,0,0,0,0,0,0a2.38,2.38,0,0,0,0,.46A18.81,18.81,0,0,1,171.6,178a20.44,20.44,0,0,1-14.29,5.7,21.35,21.35,0,0,1-4.8-.55c-1.72-2.8-7.16-5.55-28.57-10.48-12.37-2.86-17.44-3.62-21.55-.33s-5.9,9.23-4.27,13.67c1.42,3.87,4.7,5.8,21.36,9.58,10.39,2.36,16.77,3.36,21,3.36,4,0,6.1-.89,7.87-2.35a14.08,14.08,0,0,0,5-8.21,24.92,24.92,0,0,0,4,.31,25.44,25.44,0,0,0,17.76-7.1,23.75,23.75,0,0,0,7.4-17v0C184,156,186,147.41,188.39,139c1-3.49,1.93-6.68,2.78-9.49C194.62,118.07,196.51,111.78,192.5,108.39ZM145.17,192.7c-1.71,1.41-5,2.41-24.59-2-14.06-3.2-17.16-4.78-17.77-6.43-.9-2.46.34-6.15,2.71-8.05a5.49,5.49,0,0,1,3.72-1.07c2.55,0,6.56.75,13.58,2.37,18.74,4.32,24,6.8,25.23,8.07a1.15,1.15,0,0,1,.32.51,3.5,3.5,0,0,1,.07.45c0,.11,0,.23,0,.35C148.46,188.9,146.88,191.29,145.17,192.7Z"/><path class="cls-3" d="M157.28,128.48a1.84,1.84,0,0,1-.33,0L131.33,125a2.5,2.5,0,1,1,.66-5l25.62,3.42a2.5,2.5,0,0,1-.33,5Z"/><path class="cls-5" d="M121.71,140.64h-47a2.5,2.5,0,0,1,0-5h47a2.5,2.5,0,0,1,0,5Z"/><path class="cls-5" d="M121.71,150.67h-47a2.5,2.5,0,1,1,0-5h47a2.5,2.5,0,1,1,0,5Z"/><path class="cls-5" d="M116,160.85H79.11a2.5,2.5,0,1,1,0-5H116a2.5,2.5,0,0,1,0,5Z"/><path class="cls-1" d="M97.52.5A59.8,59.8,0,0,0,68.13,112.38V119c0,6.82,5,12.37,11.22,12.37h36.43C122,131.33,127,125.78,127,119v-6.62A59.8,59.8,0,0,0,97.52.5Zm25.8,108.17a2.45,2.45,0,0,0-1.28,1.81l0,.23c0,.07,0,.14,0,.2v8c0,4.06-2.79,7.37-6.22,7.37H79.35c-3.43,0-6.22-3.31-6.22-7.37v-8a2.22,2.22,0,0,0,0-.37,1.76,1.76,0,0,0-.08-.37,2.45,2.45,0,0,0-1.22-1.52,54.81,54.81,0,1,1,51.52,0Z"/></g></g></svg>