<svg width="40" height="40" viewBox="0 0 40 40" fill="none" xmlns="http://www.w3.org/2000/svg">
<path d="M18.0633 22.9305L10.5627 31.5H7.64804L16.8336 21.0007L17.1031 20.6927L16.8544 20.3677L7.012 7.50115H14.5029L20.3952 15.2915L20.7658 15.7816L21.1703 15.3191L28.0093 7.5H30.9216L22.3814 17.2618L22.1134 17.5681L22.359 17.8926L32.6535 31.5H25.3708L18.8367 22.9561L18.4656 22.4709L18.0633 22.9305ZM25.8974 29.7661L26.0475 29.9623H26.2946H28.6444H29.6495L29.0432 29.1607L13.8735 9.10354L13.7235 8.90515H13.4748H10.9532H9.94128L10.5561 9.70892L25.8974 29.7661Z" fill="#FFFFEC" stroke="#FFFFEC"/>
<rect x="1.5" y="1.5" width="37" height="37" rx="8.5" stroke="#FFFFEC" stroke-width="3"/>
</svg>
